<svg xmlns="http://www.w3.org/2000/svg" width="280" height="280" viewBox="0 0 280 280">
  <g fill="none" stroke="#ffffff" stroke-width="2.4" stroke-linecap="round" stroke-linejoin="round" opacity="0.035">
    <!-- halter -->
    <g transform="translate(24,30) rotate(-18)">
      <path d="M0 10 h44"/>
      <path d="M0 2 v16 M6 -1 v22 M38 -1 v22 M44 2 v16"/>
    </g>
    <!-- gota d'agua -->
    <path d="M150 24 C138 42 138 56 150 62 C162 56 162 42 150 24 Z"/>
    <!-- maca -->
    <g transform="translate(232,40)">
      <path d="M0 6 C-12 -2 -22 8 -16 20 C-12 28 -4 30 0 24 C4 30 12 28 16 20 C22 8 12 -2 0 6 Z"/>
      <path d="M0 6 C2 -2 8 -4 12 -2"/>
    </g>
    <!-- coracao -->
    <path d="M40 150 C30 138 10 146 18 162 L40 184 L62 162 C70 146 50 138 40 150 Z"/>
    <!-- chama -->
    <g transform="translate(140,150)">
      <path d="M0 -16 C16 0 14 22 0 30 C-16 22 -14 4 -4 -6 C-4 6 2 8 4 2 C6 -4 0 -8 0 -16 Z"/>
    </g>
    <!-- trofeu -->
    <g transform="translate(232,150)">
      <path d="M-14 -16 H14 V-6 A14 14 0 0 1 -14 -6 Z"/>
      <path d="M-14 -12 H-22 A8 8 0 0 0 -14 0 M14 -12 H22 A8 8 0 0 1 14 0"/>
      <path d="M0 8 V18 M-12 24 H12 M-6 18 H6"/>
    </g>
    <!-- biceps (musculo) -->
    <g transform="translate(40,242)">
      <path d="M-18 0 C-18 -14 -4 -18 6 -14 C16 -10 22 -2 22 8 C22 14 16 18 8 16 C8 8 2 4 -4 6 C-8 12 -14 12 -18 8 Z"/>
    </g>
    <!-- relogio/timer -->
    <g transform="translate(150,238)">
      <circle cx="0" cy="2" r="16"/>
      <path d="M0 2 V-7 M0 2 L7 5 M-5 -16 H5"/>
    </g>
    <!-- garrafa -->
    <g transform="translate(244,236)">
      <path d="M-6 -14 H6 M-7 -14 V-8 L-9 -4 V18 A4 4 0 0 0 -5 22 H5 A4 4 0 0 0 9 18 V-4 L7 -8 V-14"/>
      <path d="M-9 4 H9"/>
    </g>
  </g>
</svg>
